<?xml version="1.0" standalone="no"?><!DOCTYPE svg PUBLIC "-//W3C//DTD SVG 1.1//EN" "http://www.w3.org/Graphics/SVG/1.1/DTD/svg11.dtd"><svg t="1745490257887" class="icon" viewBox="0 0 1706 1024" version="1.1" xmlns="http://www.w3.org/2000/svg" p-id="3445" xmlns:xlink="http://www.w3.org/1999/xlink" width="333.203125" height="200"><path d="M576.853333 567.523556a106.951111 106.951111 0 0 0-72.135111 31.857777L258.389333 888.945778c-14.904889 17.521778 10.467556 31.971556 56.888889 31.971555h568.888889l-1.024-352.711111z" fill="#E6E6E6" p-id="3446"></path><path d="M1187.726222 568.888889l-305.379555-0.568889 1.024 352.711111h568.888889c45.511111 0 71.338667-14.336 56.32-31.857778l-248.035556-288.426666a108.430222 108.430222 0 0 0-72.817778-31.857778z" fill="#CCCCCC" p-id="3447"></path><path d="M1466.254222 901.802667H297.187556a87.04 87.04 0 0 1-44.714667-9.216c-8.192 16.270222 13.994667 29.013333 53.703111 29.013333h1151.203556c39.594667 0 61.895111-12.629333 53.589333-29.013333a87.267556 87.267556 0 0 1-44.714667 9.216z" fill="" p-id="3448"></path><path d="M876.088889 852.536889l22.869333-0.113778 10.808889-26.055111-131.299555 26.282667 22.869333-0.113778-107.975111 19.114667h67.584l-35.271111 12.288H781.312l31.630222-12.401778h67.584L876.088889 852.536889zM1249.393778 779.491556l19.456-0.113778 9.216-22.186667-111.843556 22.414222 19.342222-0.113777-91.932444 16.270222h57.571556l-30.037334 10.467555h47.331556l27.079111-10.467555h57.571555l-3.754666-16.270222z" fill="" p-id="3449"></path><path d="M1092.266667 324.608a206.620444 206.620444 0 0 0-204.117334-206.620444v121.969777a84.650667 84.650667 0 0 1 0 169.187556V731.591111l159.288889-278.869333A205.824 205.824 0 0 0 1092.266667 324.608z" fill="#C1272D" p-id="3450"></path><path d="M885.532444 409.6a84.764444 84.764444 0 1 1 0-169.528889h2.616889V117.987556h-2.616889a206.620444 206.620444 0 0 0-162.133333 334.734222l162.133333 283.534222 2.616889-4.551111V409.6z" fill="#E5303E" p-id="3451"></path><path d="M753.436444 671.630222l-72.248888 96.483556h27.420444l-55.296 70.314666h100.124444V671.630222z" fill="#39B54A" p-id="3452"></path><path d="M798.378667 768.113778h27.306666l-72.248889-96.483556v166.798222h100.238223l-55.296-70.314666z" fill="#31993B" p-id="3453"></path><path d="M753.436444 838.428444h27.761778v45.511112h-27.761778z" fill="#CC832B" p-id="3454"></path><path d="M725.674667 838.428444h27.761777v45.511112h-27.761777z" fill="#E59033" p-id="3455"></path><path d="M734.776889 615.310222h10.922667l5.233777-12.515555-63.146666 12.629333 11.036444-0.113778-51.882667 9.216h32.426667l-16.952889 5.916445H689.152l15.246222-6.030223h32.426667l-2.048-9.102222zM1281.592889 702.122667h14.791111l7.054222-16.952889-85.447111 17.066666h14.904889l-70.314667 12.401778h44.032l-22.983111 7.964445h36.181334l20.593777-8.078223h44.032l-2.844444-12.401777z" fill="" p-id="3456"></path><path d="M675.84 528.384l-34.816 46.421333h13.198222l-26.624 33.678223h48.241778v-80.099556z" fill="#39B54A" p-id="3457"></path><path d="M697.344 574.805333h13.198222l-34.702222-46.421333v80.099556h48.128l-26.624-33.678223z" fill="#31993B" p-id="3458"></path><path d="M675.84 608.597333h13.312v21.845334H675.84z" fill="#CC832B" p-id="3459"></path><path d="M662.414222 608.597333h13.312v21.845334h-13.312z" fill="#E59033" p-id="3460"></path><path d="M1201.720889 584.362667l-46.990222 62.919111h17.749333l-35.953778 45.738666H1201.720889v-108.657777z" fill="#39B54A" p-id="3461"></path><path d="M1230.961778 647.281778h17.749333l-46.990222-62.919111v108.657777H1266.915556l-35.953778-45.738666z" fill="#31993B" p-id="3462"></path><path d="M1201.720889 693.020444h18.090667v29.582223h-18.090667z" fill="#CC832B" p-id="3463"></path><path d="M1183.630222 693.020444h18.090667v29.582223h-18.090667z" fill="#E59033" p-id="3464"></path><path d="M1144.604444 626.801778l-61.781333 82.488889h23.438222l-47.217777 60.074666h85.560888V626.801778z" fill="#39B54A" p-id="3465"></path><path d="M1182.947556 709.290667h23.438222l-61.781334-82.488889v142.563555h85.674667l-47.331555-60.074666z" fill="#31993B" p-id="3466"></path><path d="M1144.604444 769.365333h23.779556v38.912h-23.779556z" fill="#CC832B" p-id="3467"></path><path d="M1120.824889 769.365333h23.779555v38.912h-23.779555z" fill="#E59033" p-id="3468"></path><path d="M549.205333 770.161778h16.611556l7.964444-19.000889-95.687111 19.114667h16.611556l-78.506667 13.880888 49.152-0.113777-25.713778 8.988444h40.504889l23.096889-8.988444h49.265778l-3.299556-13.880889z" fill="" p-id="3469"></path><path d="M459.662222 640.455111l-52.906666 70.769778h20.138666l-40.618666 51.427555h73.386666V640.455111z" fill="#39B54A" p-id="3470"></path><path d="M492.544 711.224889h20.024889l-52.906667-70.769778v122.197333h73.386667l-40.504889-51.427555z" fill="#31993B" p-id="3471"></path><path d="M459.662222 762.652444h20.366222v33.336889H459.662222z" fill="#CC832B" p-id="3472"></path><path d="M439.296 762.652444h20.366222v33.336889h-20.366222z" fill="#E59033" p-id="3473"></path></svg>