<?xml version="1.0" standalone="no"?><!DOCTYPE svg PUBLIC "-//W3C//DTD SVG 1.1//EN" "http://www.w3.org/Graphics/SVG/1.1/DTD/svg11.dtd"><svg t="1745144254109" class="icon" viewBox="0 0 1024 1024" version="1.1" xmlns="http://www.w3.org/2000/svg" p-id="7157" xmlns:xlink="http://www.w3.org/1999/xlink" width="200" height="200"><path d="M216.057241 164.906294H236.299937v1.339011c12.602456-0.866419 27.095281-1.339011 44.423659-1.339011h462.510153c70.258695 0 95.699904 7.325178 121.298644 21.030349 25.75627 13.705171 45.920201 33.869102 59.625372 59.546607 13.705171 25.677505 21.030349 51.19748 21.03035 121.298644V750.684225c0 70.258695-7.325178 95.699904-21.03035 121.298644-13.705171 25.75627-33.869102 45.841435-59.546606 59.625372-25.677505 13.705171-51.19748 21.030349-121.298644 21.030349H280.644831c-13.705171 0-25.677505-0.315061-36.310828-0.787653a39.540207 39.540207 0 0 1-47.495508-38.595023 39.382677 39.382677 0 0 1 39.382677-39.382677h551.357471a78.765353 78.765353 0 0 0 78.765353-78.765353v-472.592119a78.765353 78.765353 0 0 0-78.765353-78.765353H211.567616l102.079898 102.079898a39.382677 39.382677 0 0 1-55.687105 55.687105L90.899095 234.377335a39.382677 39.382677 0 0 1 0-55.687104L257.881644 11.550151a39.382677 39.382677 0 1 1 55.76587 55.76587l-97.669038 97.590273zM78.769231 750.605459V366.860659v383.7448z" fill="#2c2c2c" p-id="7158"></path></svg>