<?xml version="1.0" standalone="no"?><!DOCTYPE svg PUBLIC "-//W3C//DTD SVG 1.1//EN" "http://www.w3.org/Graphics/SVG/1.1/DTD/svg11.dtd"><svg t="1745477586153" class="icon" viewBox="0 0 1024 1024" version="1.1" xmlns="http://www.w3.org/2000/svg" p-id="3466" xmlns:xlink="http://www.w3.org/1999/xlink" width="200" height="200"><path d="M467.3 767.6C300.6 767.6 165 631.9 165 465.2s135.6-302.3 302.3-302.3 302.4 135.6 302.4 302.3S634 767.6 467.3 767.6z m0-564.7C322.7 202.9 205 320.6 205 465.2s117.7 262.3 262.3 262.3c144.7 0 262.4-117.7 262.4-262.3S612 202.9 467.3 202.9z" fill="#0099FF" p-id="3467"></path><path d="M839 861.1c-5.1 0-10.2-2-14.1-5.9L650.6 681c-7.8-7.8-7.8-20.5 0-28.3s20.5-7.8 28.3 0L853.2 827c7.8 7.8 7.8 20.5 0 28.3-3.9 3.9-9.1 5.8-14.2 5.8zM587.3 485.2h-240c-11.1 0-20-8.9-20-20s8.9-20 20-20h240c11.1 0 20 8.9 20 20s-8.9 20-20 20z" fill="#0099FF" p-id="3468"></path><path d="M467.3 605.2c-11.1 0-20-8.9-20-20v-240c0-11.1 8.9-20 20-20s20 8.9 20 20v240c0 11.1-8.9 20-20 20z" fill="#0099FF" p-id="3469"></path></svg>