<?xml version="1.0" standalone="no"?><!DOCTYPE svg PUBLIC "-//W3C//DTD SVG 1.1//EN" "http://www.w3.org/Graphics/SVG/1.1/DTD/svg11.dtd"><svg t="1744861544985" class="icon" viewBox="0 0 1024 1024" version="1.1" xmlns="http://www.w3.org/2000/svg" p-id="5708" xmlns:xlink="http://www.w3.org/1999/xlink" width="200" height="200"><path d="M584.704 998.4H439.296c-228.352 0-413.696-185.344-413.696-413.696V439.296c0-228.352 185.344-413.696 413.696-413.696h145.408c228.352 0 413.696 185.344 413.696 413.696v145.408c0 228.352-185.344 413.696-413.696 413.696z" fill="#38B6FF" p-id="5709"></path><path d="M998.4 584.704V439.296c0-228.352-185.344-413.696-413.696-413.696H439.296C210.944 25.6 25.6 210.944 25.6 439.296v145.408c0 228.352 185.344 413.696 413.696 413.696h145.408c13.312 0 26.624-1.024 38.912-2.048 162.816-61.44 294.912-185.344 368.64-342.016 4.096-22.528 6.144-46.08 6.144-69.632z" fill="#38B6FF" p-id="5710"></path><path d="M584.704 25.6H439.296C210.944 25.6 25.6 210.944 25.6 439.296v145.408c0 159.744 90.112 296.96 222.208 366.592 45.056 10.24 91.136 16.384 139.264 16.384C715.776 967.68 983.04 700.416 983.04 371.712c0-17.408-1.024-34.816-2.048-51.2-51.2-171.008-208.896-294.912-396.288-294.912z" fill="#39BBFE" p-id="5711"></path><path d="M911.36 371.712c0-91.136-23.552-177.152-64.512-252.928-71.68-58.368-161.792-93.184-261.12-93.184H439.296C210.944 25.6 25.6 210.944 25.6 439.296v145.408c0 79.872 22.528 153.6 61.44 216.064 84.992 59.392 188.416 94.208 300.032 94.208C675.84 896 911.36 660.48 911.36 371.712z" fill="#3AC0FC" p-id="5712"></path><path d="M435.2 26.624c-226.304 0-409.6 185.344-409.6 413.696v145.408c0 22.528 2.048 44.032 5.12 65.536 87.04 111.616 222.208 180.224 374.784 172.032 238.592-12.288 424.96-212.992 424.96-452.608 0-131.072-54.272-247.808-142.336-330.752-34.816-9.216-70.656-15.36-108.544-15.36l-144.384 2.048z" fill="#3BC6FB" p-id="5713"></path><path d="M544.768 25.6H439.296C210.944 25.6 25.6 210.944 25.6 439.296v51.2c52.224 158.72 205.824 271.36 385.024 260.096 189.44-11.264 343.04-163.84 355.328-353.28 11.264-163.84-82.944-308.224-221.184-371.712z" fill="#3BCBFA" p-id="5714"></path><path d="M388.096 375.808m-308.224 0a308.224 308.224 0 1 0 616.448 0 308.224 308.224 0 1 0-616.448 0Z" fill="#3CD0F8" p-id="5715"></path><path d="M388.096 375.808m-235.52 0a235.52 235.52 0 1 0 471.04 0 235.52 235.52 0 1 0-471.04 0Z" fill="#3DD5F7" p-id="5716"></path><path d="M512 266.24c-112.64 0-204.8 91.136-204.8 202.752 0 41.984 12.288 81.92 35.84 114.688 1.024 2.048 2.048 4.096 4.096 6.144l149.504 160.768c4.096 4.096 9.216 7.168 15.36 7.168s11.264-2.048 16.384-8.192l148.48-160.768c1.024-2.048 3.072-4.096 3.072-5.12 23.552-33.792 36.864-73.728 36.864-115.712C716.8 357.376 624.64 266.24 512 266.24z m0 284.672c-39.936 0-72.704-33.792-72.704-74.752s32.768-74.752 72.704-74.752 72.704 33.792 72.704 74.752-32.768 74.752-72.704 74.752z" fill="#FFFFFF" opacity=".8" p-id="5717"></path></svg>