<?xml version="1.0" standalone="no"?><!DOCTYPE svg PUBLIC "-//W3C//DTD SVG 1.1//EN" "http://www.w3.org/Graphics/SVG/1.1/DTD/svg11.dtd"><svg t="1745477604021" class="icon" viewBox="0 0 1024 1024" version="1.1" xmlns="http://www.w3.org/2000/svg" p-id="4432" xmlns:xlink="http://www.w3.org/1999/xlink" width="200" height="200"><path d="M879.445 800.939l-102.869-102.87a336.981 336.981 0 0 0 71.808-208c0-187.136-152.235-339.328-339.328-339.328-187.136 0-339.328 152.192-339.328 339.328S321.92 829.44 509.056 829.44A336.808 336.808 0 0 0 716.8 757.76l102.87 102.955a42.453 42.453 0 0 0 59.946 0.17 42.41 42.41 0 0 0-0.17-59.946z m-645.12-310.827a275.03 275.03 0 0 1 274.731-274.73 275.03 275.03 0 0 1 274.688 274.73A275.03 275.03 0 0 1 509.056 764.8a275.03 275.03 0 0 1-274.73-274.688z" p-id="4433" fill="#1296db"></path><path d="M623.36 457.813H394.752c-17.195 0-31.104 14.422-31.104 32.299 0 17.835 13.91 32.341 31.104 32.341H623.36c17.152 0 31.104-14.506 31.104-32.341 0-17.877-13.952-32.341-31.147-32.341z" p-id="4434" fill="#1296db"></path></svg>