<?xml version="1.0" standalone="no"?><!DOCTYPE svg PUBLIC "-//W3C//DTD SVG 1.1//EN" "http://www.w3.org/Graphics/SVG/1.1/DTD/svg11.dtd"><svg t="1744861500350" class="icon" viewBox="0 0 1024 1024" version="1.1" xmlns="http://www.w3.org/2000/svg" p-id="2929" xmlns:xlink="http://www.w3.org/1999/xlink" width="200" height="200"><path d="M628.363636 395.636364m-186.181818 0a186.181818 186.181818 0 1 0 372.363637 0 186.181818 186.181818 0 1 0-372.363637 0Z" fill="#EF8F1D" opacity=".9" p-id="2930"></path><path d="M628.363636 186.181818a23.272727 23.272727 0 0 0 23.272728-23.272727v-23.272727a23.272727 23.272727 0 0 0-23.272728-23.272728 23.272727 23.272727 0 0 0-23.272727 23.272728v23.272727a23.272727 23.272727 0 0 0 23.272727 23.272727z" fill="#EF8F1D" opacity=".9" p-id="2931"></path><path d="M837.818182 372.363636m23.272727 0l23.272727 0q23.272727 0 23.272728 23.272728l0 0q0 23.272727-23.272728 23.272727l-23.272727 0q-23.272727 0-23.272727-23.272727l0 0q0-23.272727 23.272727-23.272728Z" fill="#EF8F1D" opacity=".9" p-id="2932"></path><path d="M628.363636 605.090909a23.272727 23.272727 0 0 0-23.272727 23.272727v23.272728a23.272727 23.272727 0 0 0 23.272727 23.272727 23.272727 23.272727 0 0 0 23.272728-23.272727v-23.272728a23.272727 23.272727 0 0 0-23.272728-23.272727z" fill="#EF8F1D" opacity=".9" p-id="2933"></path><path d="M395.636364 372.363636h-23.272728a23.272727 23.272727 0 0 0-23.272727 23.272728 23.272727 23.272727 0 0 0 23.272727 23.272727h23.272728a23.272727 23.272727 0 0 0 23.272727-23.272727 23.272727 23.272727 0 0 0-23.272727-23.272728z" fill="#EF8F1D" opacity=".9" p-id="2934"></path><path d="M792.925091 198.144l-16.453818 16.453818a23.272727 23.272727 0 0 0 0 32.930909 23.272727 23.272727 0 0 0 32.907636 0l16.453818-16.453818a23.272727 23.272727 0 0 0 0-32.930909 23.272727 23.272727 0 0 0-32.907636 0z" fill="#EF8F1D" opacity=".9" p-id="2935"></path><path d="M809.402182 543.744a23.272727 23.272727 0 0 0-32.930909 0 23.272727 23.272727 0 0 0 0 32.907636l16.453818 16.453819a23.272727 23.272727 0 0 0 32.907636 0 23.272727 23.272727 0 0 0 0-32.907637z" fill="#EF8F1D" opacity=".9" p-id="2936"></path><path d="M447.348364 543.744l-16.453819 16.453818a23.272727 23.272727 0 0 0 0 32.907637 23.272727 23.272727 0 0 0 32.907637 0l16.453818-16.453819a23.272727 23.272727 0 0 0 0-32.907636 23.272727 23.272727 0 0 0-32.907636 0z" fill="#EF8F1D" opacity=".9" p-id="2937"></path><path d="M447.348364 247.528727a23.272727 23.272727 0 0 0 32.907636 0 23.272727 23.272727 0 0 0 0-32.930909l-16.453818-16.453818a23.272727 23.272727 0 0 0-32.907637 0 23.272727 23.272727 0 0 0 0 32.930909z" fill="#EF8F1D" opacity=".9" p-id="2938"></path><path d="M777.029818 543.697455a186.181818 186.181818 0 0 0-177.757091-130.606546 193.396364 193.396364 0 0 0-16.500363 0.814546A185.879273 185.879273 0 0 0 424.727273 325.818182a186.181818 186.181818 0 0 0-186.181818 186.181818 186.344727 186.344727 0 0 0 3.211636 33.629091A186.181818 186.181818 0 0 0 116.363636 721.454545a186.181818 186.181818 0 0 0 186.181819 186.181819h418.90909a186.181818 186.181818 0 0 0 186.181819-186.181819 186.181818 186.181818 0 0 0-130.606546-177.75709z" fill="#1C7BF2" opacity=".8" p-id="2939"></path></svg>